<svg version="1.2" xmlns="http://www.w3.org/2000/svg" viewBox="0 0 1000 840" width="1000" height="840">
	<title>2130337-ai</title>
	<defs>
		<clipPath clipPathUnits="userSpaceOnUse" id="cp1">
			<path d="m767.42 735.36q-0.34 0.16-0.63 0.39 0.26-0.25 0.63-0.39z"/>
		</clipPath>
	</defs>
	<style>
		.s0 { opacity: .2;fill: #aea2e9 } 
		.s1 { fill: none;stroke: #1c00a0;stroke-width: 2 } 
		.s2 { fill: #ffb55c } 
		.s3 { fill: #ffffff } 
		.s4 { opacity: .4;fill: #8e8aff } 
		.s5 { opacity: .4;fill: none;stroke: #8e8aff;stroke-width: 2 } 
		.s6 { fill: none;stroke: #8e8aff;stroke-width: 2 } 
		.s7 { fill: none;stroke: #ff6157;stroke-linecap: round;stroke-width: 4 } 
		.s8 { fill: #6146c6 } 
		.s9 { fill: #ebaf84 } 
		.s10 { fill: #321144 } 
		.s11 { fill: #ffc385 } 
		.s12 { fill: #ff6157 } 
		.s13 { fill: #ffb507 } 
		.s14 { fill: #25232a } 
		.s15 { fill: #aea2e9 } 
		.s16 { fill: #f3f0d8 } 
	</style>
	<g id="BACKGROUND">
		<g id="&lt;Group&gt;">
			<g id="&lt;Group&gt;">
				<path id="&lt;Path&gt;" class="s0" d="m117.8 702.4l220.9-567.7 149.8 339.3 150.7-408 253.5 635.7z"/>
				<path id="&lt;Path&gt;" class="s1" d="m190.7 721.6h228.3"/>
				<path id="&lt;Path&gt;" class="s1" d="m640.9 721.6h195.8"/>
				<path id="&lt;Path&gt;" class="s1" d="m50.6 703.4h862.7"/>
			</g>
			<g id="&lt;Group&gt;">
			</g>
			<g id="&lt;Group&gt;">
			</g>
			<g id="&lt;Group&gt;">
			</g>
			<g id="&lt;Group&gt;">
			</g>
			<g id="&lt;Group&gt;">
			</g>
		</g>
	</g>
	<g id="OBJECTS">
		<path id="&lt;Path&gt;" class="s0" d="m384.4 746c0 7.5-32 13.6-71.5 13.6-39.4 0-71.4-6.1-71.4-13.6 0-7.5 32-13.6 71.4-13.6 39.5 0 71.5 6.1 71.5 13.6z"/>
		<path id="&lt;Path&gt;" class="s0" d="m802.6 746c0 7.5-32 13.6-71.5 13.6-39.4 0-71.4-6.1-71.4-13.6 0-7.5 32-13.6 71.4-13.6 39.5 0 71.5 6.1 71.5 13.6z"/>
		<path id="&lt;Path&gt;" class="s0" d="m676.6 702.7c0 7.5-92.8 13.6-207.2 13.6-114.4 0-207.2-6.1-207.2-13.6 0-7.5 92.8-13.6 207.2-13.6 114.4 0 207.2 6.1 207.2 13.6z"/>
		<g id="&lt;Group&gt;">
			<path id="&lt;Path&gt;" class="s2" d="m654.1 702.7h-328.5c-16.4 0-29.7-13.3-29.7-29.7v-417.9c0-16.3 13.3-29.6 29.7-29.6h328.5c16.4 0 29.7 13.3 29.7 29.6v417.9c0 16.4-13.3 29.7-29.7 29.7z"/>
			<path id="&lt;Path&gt;" class="s3" d="m640.9 667.1h-303.5v-400.8h303.5z"/>
			<g id="&lt;Group&gt;">
				<path id="&lt;Path&gt;" class="s4" d="m523.7 374h-164.4v-60h164.4z"/>
				<path id="&lt;Path&gt;" class="s1" d="m373.1 325.5h128.3"/>
				<path id="&lt;Path&gt;" class="s1" d="m373.1 355.2h95.1"/>
				<path id="&lt;Path&gt;" class="s1" d="m373.1 340.3h68.4"/>
			</g>
			<g id="&lt;Group&gt;">
				<path id="&lt;Path&gt;" class="s4" d="m523.7 455.6h-164.4v-60h164.4z"/>
				<path id="&lt;Path&gt;" class="s1" d="m373.1 407h128.3"/>
				<path id="&lt;Path&gt;" class="s1" d="m373.1 436.7h95.1"/>
				<path id="&lt;Path&gt;" class="s1" d="m373.1 421.9h68.4"/>
			</g>
			<g id="&lt;Group&gt;">
				<path id="&lt;Path&gt;" class="s4" d="m523.7 537.1h-164.4v-60h164.4z"/>
				<path id="&lt;Path&gt;" class="s5" d="m523.7 610.2h-164.4v-60h164.4z"/>
				<path id="&lt;Path&gt;" class="s1" d="m373.1 488.6h128.3"/>
				<path id="&lt;Path&gt;" class="s1" d="m373.1 518.3h95.1"/>
				<path id="&lt;Path&gt;" class="s1" d="m373.1 503.5h68.4"/>
			</g>
			<path id="&lt;Path&gt;" class="s6" d="m595.2 345.3c0 10.9-8.9 19.8-19.8 19.8-11 0-19.8-8.9-19.8-19.8 0-11 8.8-19.8 19.8-19.8 10.9 0 19.8 8.8 19.8 19.8z"/>
			<path id="&lt;Path&gt;" class="s6" d="m595.2 422.7c0 11-8.9 19.8-19.8 19.8-11 0-19.8-8.8-19.8-19.8 0-10.9 8.8-19.8 19.8-19.8 10.9 0 19.8 8.9 19.8 19.8z"/>
			<path id="&lt;Path&gt;" class="s7" d="m613.9 314l-41.1 45.9-19.3-20.9"/>
			<path id="&lt;Path&gt;" class="s7" d="m591.5 414.8l-18.7 23.5-19.3-20.9"/>
			<path id="&lt;Path&gt;" class="s6" d="m595.2 504.1c0 11-8.9 19.8-19.8 19.8-11 0-19.8-8.8-19.8-19.8 0-10.9 8.8-19.8 19.8-19.8 10.9 0 19.8 8.9 19.8 19.8z"/>
			<path id="&lt;Path&gt;" class="s6" d="m595.2 587.5c0 10.9-8.9 19.8-19.8 19.8-11 0-19.8-8.9-19.8-19.8 0-10.9 8.8-19.8 19.8-19.8 10.9 0 19.8 8.9 19.8 19.8z"/>
			<path id="&lt;Path&gt;" class="s7" d="m613.9 557.3l-41.1 45.9-19.3-20.9"/>
		</g>
		<g id="&lt;Group&gt;">
			<g id="&lt;Group&gt;">
				<g id="&lt;Group&gt;">
					<path id="&lt;Path&gt;" class="s8" d="m703.4 670.2q-0.1-1.2-0.1-2.3-0.2-1.9-0.2-4.3c0-6.3-0.8-33.5-1.2-49.8-1-14.2-0.3-26.8-0.3-26.8l42.1-2.9c1.6 6.2 2.3 11.3 2.5 15.4 1.1 6.4 7.4 52.2 9.1 60.6q0.2 0.7 0.3 1.3c9.1 13.7 15.9 65.7 17.7 74.7 0.2 1.2-0.5 1.1-1.2 1-2.1-0.2-1.4-2.2-4.3-1.8-1.6 0.2-1.9 2.3-1.9 2.3-4.1-12-17.8-54.5-24-67.2-1-1.9-1.5-3.7-1.6-5.2-5.1-14.1-13-38.2-15.3-48.6-1.2 11.9-2 38.8-4.5 51.4 5.6 17.1-2.2 53-1.3 73.5-2.4-3.5-4.5-4.2-5.5-4-1.5 0.2-2.3 1.5-2.3 1.5-1.5-27.5-6.4-54.7-8-68.8z"/>
					<path id="&lt;Path&gt;" class="s9" d="m725.1 510.5c-2.3 1.9-5.5 4.6-14 9.9-11.9 7.4-18.5 10.3-22.1 11.4q-0.9 0.4-1.8 0.5-0.5 0.1-1 0c-0.9-0.1-1.8-0.5-2.7-1.2-6.1-5.3-8.3-7.4-14.5-16.4-4.3-6.2-7.2-6.4-7.1-8.8 0-1.9 2.7-4.4 4.1-2.6 1.7 2.1 14.5 12.5 21 18.6 4.4-2.8 13.2-9.5 24.7-17.8 2.3-1.7 8.4-3.1 13-1.9 2.8 0.7 4.6 4.9 0.4 8.3z"/>
					<path id="&lt;Path&gt;" class="s9" d="m729.7 486.4c0 0.4 1.4 10.1 2.1 17.5 0.3 3.7-2.1 7.4-4.7 7.6q-0.1 0-0.2 0c-2.5 0.2-5.8-2.8-5.8-6.4 0-6.6-0.8-13.2-0.8-13.3z"/>
					<path id="&lt;Path&gt;" class="s2" d="m740.1 527.9c-1.8 6.7-2.6 13.7-3.3 20.7-0.5 5.1 0.1 10.4 1.1 15.4 0.7 3 1.5 6 2.4 9 0.2 0.7 2.9 6.4 4.7 10.3 0.9 1.8-0.4 3.8-2.3 3.8-9.5 0.3-33.2 0.9-40.9 1.2-1.3 0-2.3-1.1-2.2-2.4 1.2-10.4 8.8-35.1 1.9-50-5.2-11.3 0.7-12.1 4-22 0.8-2.5 1.4-5.1 2.9-7.3 1.4-2.1 3.8-3.6 6.1-4.4 1.3-0.4 2.6-0.6 3.9-0.8 7.1-1 23.7-4.3 26 5.8 0.6 2.7 0.4 5.5-0.3 8.2-0.7 3-2 5.9-2.9 8.9q-0.6 1.8-1.1 3.6z"/>
					<path id="&lt;Path&gt;" class="s9" d="m734.3 479c-0.3 8.3-0.4 10.2-3.8 13.8-3.4 3.7-8.5 5.6-12.4 5.9-4.3 0.3-7.7-4-8.9-7.5-1.3-3.5-3-12-2.5-21.2 0.3-4.6 5.6-10.6 11.5-11 5.9-0.4 16.7-0.4 16.1 20z"/>
					<path id="&lt;Path&gt;" class="s10" d="m719.3 741.8c0.7 3.9 0.7 4.1-2.7 4.4-2.6 0.2-4.8 0.4-7 0.9-2.2 0.5-6.5 1.5-10.3 0.5-3.8-1 11.2-7.7 11.6-8.7 1.3-3.1 7.4-2.4 8.4 2.9z"/>
					<path id="&lt;Path&gt;" class="s10" d="m774.3 739.8c0.8 3.8-5.5 6.9-7.7 7.4-2.2 0.5-6.5 1.6-10.3 0.6-3.8-1 9.2-10 9.6-10.9 1.4-3.2 7.4-2.5 8.4 2.9z"/>
					<path id="&lt;Path&gt;" class="s9" d="m736.4 474.8c1.5 0.5 2 3.4 1 6.3-1 3-3 4.9-4.6 4.4-1.5-0.5-2-3.3-1-6.2 1-3 3-5 4.6-4.5z"/>
					<g id="&lt;Clip Group&gt;" clip-path="url(#cp1)">
						<path id="&lt;Compound Path&gt;" class="s11" d="m767.4 735.4q-0.3 0.1-0.6 0.4 0.3-0.3 0.6-0.4z"/>
					</g>
					<g id="&lt;Group&gt;">
						<g id="&lt;Group&gt;">
							<path id="&lt;Path&gt;" class="s8" d="m599.3 440.6l20-22.2 173.2 156.5-20 22.1z"/>
							<path id="&lt;Path&gt;" class="s3" d="m610.3 427l2.2-2.4 173.9 157-2.2 2.5z"/>
							<path id="&lt;Path&gt;" class="s3" d="m604.8 433.2l2.2-2.5 173.8 157.1-2.2 2.4z"/>
							<path id="&lt;Path&gt;" class="s3" d="m771.8 596.4l20.5-22.7 4.4 4-20.5 22.7z"/>
							<path id="&lt;Path&gt;" class="s12" d="m778.3 602.2l-2.1-1.8 20.5-22.7 2 1.8c3.2 2.9 3.5 7.8 0.6 11.1l-10 11c-2.9 3.2-7.8 3.5-11 0.6z"/>
							<path id="&lt;Path&gt;" class="s9" d="m592.9 421.4l-2.8-8.6 9 1.8 20.2 3.8-20 22.2z"/>
							<path id="&lt;Path&gt;" class="s12" d="m590.1 412.8l9 1.8-6.2 6.8z"/>
						</g>
					</g>
					<path id="&lt;Path&gt;" class="s9" d="m771 537.2c0 1.3-0.6 2.7-1.8 3.7-6.4 5.5-8.8 7.4-19 12.5-5.4 2.6-7 4.9-8.6 5.7q0 0 0 0c-0.6 2.1-6.8 4.3-8.5 5-1.7 0.7-6.4 0.3-5.2-1.9 1.1-1.9 3.4-2.7 7-4.7-2-0.1-4.8-0.1-3.5-1 1.4-0.9 4-1.4 6.3-1.6 0.1-0.1 0.1-0.2 0.3-0.2 2.3-1.4 14.3-12.3 21.6-18.2-4.1-3.9-11.9-10.6-21.4-19.1-2.1-1.9-4.9-7.5-4.7-12.2 0.2-3 3.9-5.6 8.1-2.3 2.3 1.9 5.6 4.4 12.6 11.6 11.5 11.8 15.3 17.8 16.7 20.7 0.3 0.6 0.3 1.4 0.1 2z"/>
					<path id="&lt;Path&gt;" class="s9" d="m663.1 507.6c-0.6-1.2-0.8-3.1-0.3-4.6 0.6-1.7 4-3.7 5.2-3.9 1.4-0.2 1.9 1.3 1.5 2.4-0.7 2-2.1 3.8-3 5-1.4 1.8-2.7 2.4-3.4 1.1z"/>
				</g>
			</g>
			<path id="&lt;Path&gt;" class="s13" d="m718.4 501.4l-0.2-1.3 14.6-1.6 0.7 2.6z"/>
			<path id="&lt;Path&gt;" class="s10" d="m739.2 494.9h-13.2l-2.9-18.2c-4.9-1.7-10.1-4-13-6.4-1.6 1.1-3 2.2-3.4 3.7-0.7 2.5-1.6-5.1 0-8.7 0.9-1.9 3.9-4.9 6.3-5.9 7.5-5.4 18-1.7 21.5 2.1 0 0 7.9 4.4 4.7 33.4z"/>
		</g>
		<g id="&lt;Group&gt;">
			<g id="&lt;Group&gt;">
				<path id="&lt;Path&gt;" class="s4" d="m419 616.4l-148.4 70.7-25.7-54.2 148.3-70.6z"/>
				<path id="&lt;Path&gt;" class="s1" d="m262.2 637.3l115.9-55.1"/>
				<path id="&lt;Path&gt;" class="s1" d="m275 664.2l85.8-40.9"/>
				<path id="&lt;Path&gt;" class="s1" d="m268.6 650.7l61.8-29.4"/>
			</g>
			<g id="&lt;Group&gt;">
				<path id="&lt;Path&gt;" class="s9" d="m276 626.7l-22.2 14.8 11 34.4c0 0 8.1 3.6 9.5 6.4 1.5 2.8 4.1 6.4 2.7 6.2-1.5-0.2-5.8-3.8-6.6-3.8-0.8 0 1.3 9.8 1.3 9.8 0 0-7.3-0.9-10.1-5.2-2.7-4.2-4.4-11.7-4.4-11.7 0 0-11.1-20.8-15.5-37.5-0.7-2.6 0.3-5.4 2.3-7.1 7.1-5.9 23.3-19.3 29.5-21.7 8-3.1 12.9 9.6 2.5 15.4z"/>
				<path id="&lt;Path&gt;" class="s8" d="m296.9 669.3l2.8 4.4c0 0 60.4-3.1 68.5 7.4 8.1 10.5-10.5 29.1-32.5 43.3-22 14.2-14.5 9.8-14.5 9.8 0 0 21.1 2.9 20.8 6.1-0.2 3.2-40.1 0-40.1 0l35.7-40.9-50.1 2.5-10.8-30.1z"/>
				<path id="&lt;Path&gt;" class="s8" d="m295.2 667.4l1.7 11.7c0 0 28 17.9 39 33.3 11 15.4 20.1 32.2 15.8 38.6-7.5 11.3-78.4-18.8-78.4-18.8l2.2 11.8c0 0 6.5 4.6 5.3 6.3-1.2 1.7-18-2.7-18-2.7 0 0-6.4-26.6-4.2-32.3 2.2-5.6 16.1 7.1 16.1 7.1l35.6 4.4c0 0-27-12.7-41.7-24-10.8-8.3-13.3-22.7-6.5-35.4z"/>
				<path id="&lt;Path&gt;" class="s9" d="m274.7 722.4l26.1 3.3c-1.1 2.2-2.8 7.8-0.2 17-14.9-5.2-27.3-10.5-27.3-10.5l2.2 11.8c0 0 6.5 4.6 5.3 6.3-1.2 1.7-18-2.7-18-2.7 0 0-6.4-26.6-4.2-32.3 2.2-5.6 16.1 7.1 16.1 7.1z"/>
				<path id="&lt;Path&gt;" class="s11" d="m271 719.4l3.7 3-0.8 13.3 1.6 8.3c0 0 6.5 4.6 5.3 6.3-0.8 1.1-6.5 0.6-12.7-1.1-3.3-1-5.8-3.6-6.5-7-1.8-8.1-4.6-22.8-3-26.9 1.5-3.7 8.2 0.7 12.4 4.1z"/>
				<path id="&lt;Path&gt;" class="s13" d="m326.3 576.4c0 0 12.7 16.7-11.4 21.7-24.1 5-20-8.5-18.4-11.8 1.6-3.3 21.4-13.1 29.8-9.9z"/>
				<path id="&lt;Path&gt;" class="s9" d="m323.8 582.7c0 0-2.3 10.3 0 14.1h-3.7c0 0-2 4.1-3.5 6.9-1.4 2.7-6.1-1.2-8 0-1.8 1.1-5.3 11.1-5.3 11.1l-18-5.4 15.1-31.1z"/>
				<path id="&lt;Path&gt;" class="s12" d="m305.8 613c0 0 7.8 14.4 4.9 23.6-2 6.4-7.7 9.3-11.9 13.4-4.2 4.1-0.1 23.7-2.9 24.5-5.2 1.5-34.5 0.6-37.6 0-3.1-0.7 4.6-22.1 6.4-37.9 1.8-15.8 12.2-28.8 12.2-28.8l11.6-1.2 3.3-3.3c9.1 5.6 15.5 4.5 15.5 4.5z"/>
				<path id="&lt;Path&gt;" class="s9" d="m372.8 636.1l6.9-8.6c1.9 1.7-2 7-0.1 8.7 1.8 1.7 14.3-0.1 14.3-0.1 0 2.3-5.7 6.2-7.4 7.8-1.7 1.6-1.1 1.5-5.1 2-4.1 0.5-7.1-1.1-7.1-1.1l-32.4 17.9c-3 1.6-6.6 1.2-9.1-1-8.2-7.4-25.9-23.4-27.1-25.3-1.6-2.4-9-10.3-4.8-15.5 4.9-6.1 12.6-0.6 17 5.2 4.4 5.9 21.2 23 21.2 23z"/>
				<path id="&lt;Path&gt;" class="s10" d="m314 587c-1.6 9.7-12.4 9-16.3 14.6-3.9 5.5-1.8 9.9-8.5 11.7-6.7 1.8-18.3 12.9-22.8 4.4-4.6-8.5 2.2-15.8 6.5-20.1 4.2-4.2 4.4-11.4 12.4-15 8-3.6 9.1-11.5 18.2-15.1 9.2-3.6 24.8-0.9 25.5 8.6 1 12.9-15 10.9-15 10.9z"/>
			</g>
		</g>
		<g id="&lt;Group&gt;">
			<path id="&lt;Path&gt;" class="s14" d="m435 323.9c0 0 18.2 5.6 19.7 9.7l-29.8-2.6 4.6-7.6z"/>
			<path id="&lt;Path&gt;" class="s14" d="m447.9 323.9c0 0 18.2 5.6 19.7 9.7l-29.7-2.6 4.5-7.6z"/>
			<g id="&lt;Group&gt;">
				<path id="&lt;Path&gt;" class="s8" d="m420.6 198.7l2 13.7c0 0 47.9 24.2 49.3 38.2 1.4 13.1-20.8 74.5-20.8 74.5h-7.4l1.4-70.5c0 0-18.3-4.8-46.4-21.3-11.8-6.9-13.5-22.2-6.6-34.6z"/>
				<path id="&lt;Path&gt;" class="s8" d="m406.6 197.7l2 13.7c0 0 47.8 24.2 49.3 38.2 1.4 13.1-20.8 74.5-20.8 74.5h-7.5l1.5-70.5c0 0-18.3-4.8-46.4-21.3-11.8-6.9-13.5-22.2-6.6-34.6z"/>
				<g id="&lt;Group&gt;">
					<path id="&lt;Path&gt;" class="s10" d="m444.8 101.5c-3.8-0.8-3.2 2.5-5.6 6.3-2.4 3.8-5.4 2-8.2 5.3-1.8 2.1-4.4 3.7-6.6 2.9-2.3-0.9-3.1-3.9-3.8-6.6-0.9-4.1-1.9-8.3-1.5-12.6 0.5-4.3 2.6-8.8 6.1-10.5 1.9-1 4-1 6-1 4.8-0.1 4.8-0.1 9.7-0.1 2-0.1 4.4 1.4 6.2 2.3 1.8 0.9 3.3 3 3.2 5.3-0.2 2.4-1 9.4-2.9 8.5"/>
				</g>
				<path id="&lt;Path&gt;" class="s9" d="m442 171.5l-0.5 16 23.5 16.7 5 1.3c1.5 0.3 2.6 1.4 3.1 2.9l0.2 0.4-5.4 0.2 4.4 6.5c0.9 1.3 0.4 3.1-1 3.8l-2.7 1.4c-1.1 0.5-2.3 0.3-3.1-0.6l-10.9-12.2-24.9-13.9c-1.6-0.9-2.5-2.6-2.4-4.4l1.3-21z"/>
				<path id="&lt;Path&gt;" class="s2" d="m440.6 140.5l4.7 32.3-20.4 3.8 2.3-26.1z"/>
				<path id="&lt;Path&gt;" class="s2" d="m440.6 140.5c-6.1 19.1-5.8 18.8-10.1 28.8-4.4 10.1-8.9 34.2-8.9 34.2-22.9 6.3-48.6 1.7-48.6 1.7 0.1-19.7 16.8-60.1 24-70.6 7.3-10.5 21.8-12.8 29.3-10.9 11.9 3.2 14.3 16.8 14.3 16.8z"/>
				<path id="&lt;Path&gt;" class="s9" d="m445.2 99.3l1.1 10.8-3.1-0.2c0 0-0.1 5.2-0.3 7.5-0.2 2.3-1.8 4.4-7.3 3.2l-2.6 14.4c0 0-7.7 2.5-13.3-9.5l4.2-13.8c0 0-3.8-0.9-3.8-4.9 0-3.9 5-1.6 5-1.6l0.5 7.7 3.6 1 0.8-12.7c0 0 8.4 2.4 11 0.5 1.3-1.1 2.3-2.5 2.3-2.5z"/>
				<g id="&lt;Group&gt;">
					<path id="&lt;Path&gt;" class="s15" d="m397.4 217.8l33 11.9 23.8-39.6 54.8 3.4-25.9 41-53.3-1.1-32.6-12.8z"/>
					<path id="&lt;Path&gt;" class="s16" d="m475.9 213.1c-0.7 1.9-2.4 3-3.9 2.5-1.4-0.5-2-2.3-1.3-4.2 0.7-1.8 2.4-3 3.9-2.5 1.4 0.5 2 2.4 1.3 4.2z"/>
				</g>
				<path id="&lt;Path&gt;" class="s9" d="m403.2 166.8l-2.3 20.6 26.5 24.2c0 0 14.6 2.8 14.7 4.2 0.2 1.5-7 1.7-7 1.7l5.8 9.4 0.3 0.2c2.2 2.2 1.3 5.9-1.7 6.7l-1.7 0.5c-1.3 0.4-2.7 0.1-3.7-0.8l-4.2-3.7q-0.7-0.5-1.1-1.2l-7-10.2-32.6-22.4c-1.4-0.9-2.3-2.5-2.4-4.2l-0.9-26.5z"/>
				<path id="&lt;Path&gt;" class="s2" d="m403.5 130.2c7.3 2.1 8.2 10.1 7.5 17.5-0.8 7.5 0.2 19.9 0.2 19.9l-27.8-4.8c0 0 4.2-21.8 6.5-26 3.5-6.3 8.6-8.1 13.6-6.6z"/>
			</g>
		</g>
	</g>
	<g id="DESIGNED BY FREEPIK">
		<g id="&lt;Group&gt;">
			<g id="&lt;Group&gt;">
				<g id="&lt;Group&gt;">
				</g>
			</g>
			<g id="&lt;Group&gt;">
			</g>
		</g>
	</g>
</svg>